<svg xmlns="http://www.w3.org/2000/svg" viewBox="0 0 110 110" width="100%" height="100%">
  <defs>
    <!-- Green to Teal gradient for the F canopy -->
    <linearGradient id="finelyt-green-teal-icon" x1="0%" y1="0%" x2="100%" y2="100%">
      <stop offset="0%" stop-color="#00F2A8" />
      <stop offset="100%" stop-color="#00D4FF" />
    </linearGradient>
    <!-- Blue to Teal gradient for the growth bars -->
    <linearGradient id="finelyt-blue-teal-icon" x1="0%" y1="100%" x2="100%" y2="0%">
      <stop offset="0%" stop-color="#3B82F6" />
      <stop offset="50%" stop-color="#00D4FF" />
      <stop offset="100%" stop-color="#00F2A8" />
    </linearGradient>
  </defs>

  <!-- Group for Logo Icon (translated to center the 74x80 icon in the 110x110 viewBox) -->
  <g transform="translate(-2, 5)">
    <!-- 1. The F Canopy -->
    <path d="M 20 71 
             V 26 
             C 20 15, 28 12, 38 12 
             C 55 10, 75 10, 94 12 
             C 94 12, 80 22, 42 22 
             C 34 22, 30 26, 30 32 
             C 30 32, 50 32, 68 34 
             C 68 34, 52 42, 30 42 
             V 61 
             L 20 71 
             Z" 
          fill="url(#finelyt-green-teal-icon)" />

    <!-- 2. Growth Bars -->
    <path d="M 20 90 V 78 A 3 3 0 0 1 26 78 V 90 Z" fill="url(#finelyt-blue-teal-icon)" />
    <path d="M 29 90 V 66 A 3 3 0 0 1 35 66 V 90 Z" fill="url(#finelyt-blue-teal-icon)" />

    <!-- 3. Trendline Arrow -->
    <path d="M 41 90 
             V 61 
             H 49 
             V 69 
             L 78 40" 
          fill="none" 
          stroke="url(#finelyt-blue-teal-icon)" 
          stroke-width="6" 
          stroke-linecap="round" 
          stroke-linejoin="round" />
    
    <!-- Arrowhead -->
    <polygon points="86,32 72,34 84,46" fill="url(#finelyt-green-teal-icon)" />
  </g>
</svg>