<svg xmlns="http://www.w3.org/2000/svg" viewBox="0 0 520 130" width="100%" height="100%">
  <defs>
    <!-- Green to Teal gradient for the F canopy -->
    <linearGradient id="finelyt-green-teal" x1="0%" y1="0%" x2="100%" y2="100%">
      <stop offset="0%" stop-color="#00F2A8" />
      <stop offset="100%" stop-color="#00D4FF" />
    </linearGradient>
    <!-- Blue to Teal gradient for the growth bars -->
    <linearGradient id="finelyt-blue-teal" x1="0%" y1="100%" x2="100%" y2="0%">
      <stop offset="0%" stop-color="#3B82F6" />
      <stop offset="50%" stop-color="#00D4FF" />
      <stop offset="100%" stop-color="#00F2A8" />
    </linearGradient>
    <!-- Gradient for the LYT text -->
    <linearGradient id="lyt-grad" x1="0%" y1="0%" x2="100%" y2="0%">
      <stop offset="0%" stop-color="#00F2A8" />
      <stop offset="100%" stop-color="#00D4FF" />
    </linearGradient>
    <!-- Filter for soft glow effect -->
    <filter id="glow" x="-20%" y="-20%" width="140%" height="140%">
      <feGaussianBlur stdDeviation="6" result="blur" />
      <feComposite in="SourceGraphic" in2="blur" operator="over" />
    </filter>
  </defs>

  <!-- Group for Logo Icon -->
  <g transform="translate(15, 10)">
    <!-- 1. The F Canopy (Sweeping wing-like design with 45-degree diagonal cut at bottom) -->
    <path d="M 20 71 
             V 26 
             C 20 15, 28 12, 38 12 
             C 55 10, 75 10, 94 12 
             C 94 12, 80 22, 42 22 
             C 34 22, 30 26, 30 32 
             C 30 32, 50 32, 68 34 
             C 68 34, 52 42, 30 42 
             V 61 
             L 20 71 
             Z" 
          fill="url(#finelyt-green-teal)" />

    <!-- 2. Separate Growth Bars (Flat bottoms, rounded tops) -->
    <path d="M 20 90 V 78 A 3 3 0 0 1 26 78 V 90 Z" fill="url(#finelyt-blue-teal)" />
    <path d="M 29 90 V 66 A 3 3 0 0 1 35 66 V 90 Z" fill="url(#finelyt-blue-teal)" />

    <!-- 3. Trendline Arrow (Starts as Bar 3, turns right, dips, and shoots up-right) -->
    <path d="M 41 90 
             V 61 
             H 49 
             V 69 
             L 78 40" 
          fill="none" 
          stroke="url(#finelyt-blue-teal)" 
          stroke-width="6" 
          stroke-linecap="round" 
          stroke-linejoin="round" />
    
    <!-- Arrowhead (Solid triangle pointing up-right) -->
    <polygon points="86,32 72,34 84,46" fill="url(#finelyt-green-teal)" />
  </g>

  <!-- Group for Logo Text -->
  <g transform="translate(135, 12)">
    <!-- FINE (White text) -->
    <text x="0" y="65" 
          font-family="'Outfit', 'Inter', 'system-ui', sans-serif" 
          font-size="58" 
          font-weight="900" 
          letter-spacing="2" 
          fill="#FFFFFF">FINE</text>
    <!-- LYT (Gradient text) -->
    <text x="142" y="65" 
          font-family="'Outfit', 'Inter', 'system-ui', sans-serif" 
          font-size="58" 
          font-weight="900" 
          letter-spacing="2" 
          fill="url(#lyt-grad)" 
          filter="url(#glow)">LYT</text>
    <!-- Subheading -->
    <text x="3" y="96" 
          font-family="'Outfit', 'Inter', 'system-ui', sans-serif" 
          font-size="13.5" 
          font-weight="700" 
          letter-spacing="5.5" 
          fill="#94A3B8" 
          opacity="0.8">AI PERSONAL FINANCE COACH</text>
  </g>
</svg>